<?xml version="1.0" encoding="UTF-8" standalone="no"?>
<svg
   xmlns:dc="http://purl.org/dc/elements/1.1/"
   xmlns:cc="http://creativecommons.org/ns#"
   xmlns:rdf="http://www.w3.org/1999/02/22-rdf-syntax-ns#"
   xmlns:svg="http://www.w3.org/2000/svg"
   xmlns="http://www.w3.org/2000/svg"
   xmlns:sodipodi="http://sodipodi.sourceforge.net/DTD/sodipodi-0.dtd"
   xmlns:inkscape="http://www.inkscape.org/namespaces/inkscape"
   viewBox="0 0 700 700"
   version="1.1"
   id="svg22"
   sodipodi:docname="blaze-logo.svg"
   width="700"
   height="700"
   style="fill:none"
   inkscape:version="0.92.4 (5da689c313, 2019-01-14)"
   inkscape:export-filename="C:\Users\suitedoalex\sites\blaze-logo-0.png"
   inkscape:export-xdpi="561.73712"
   inkscape:export-ydpi="561.73712">
  <metadata
     id="metadata28">
    <rdf:RDF>
      <cc:Work
         rdf:about="">
        <dc:format>image/svg+xml</dc:format>
        <dc:type
           rdf:resource="http://purl.org/dc/dcmitype/StillImage" />
        <dc:title></dc:title>
      </cc:Work>
    </rdf:RDF>
  </metadata>
  <defs
     id="defs26" />
  <sodipodi:namedview
     pagecolor="#ffffff"
     bordercolor="#666666"
     borderopacity="1"
     objecttolerance="10"
     gridtolerance="10"
     guidetolerance="10"
     inkscape:pageopacity="0"
     inkscape:pageshadow="2"
     inkscape:window-width="1600"
     inkscape:window-height="837"
     id="namedview24"
     showgrid="false"
     inkscape:zoom="0.71396396"
     inkscape:cx="67.446656"
     inkscape:cy="302.19157"
     inkscape:window-x="-8"
     inkscape:window-y="-8"
     inkscape:window-maximized="1"
     inkscape:current-layer="svg22" />
  <path
     d="m 192.00035,388.46123 -39.73516,39.73515 c -4.19133,4.19133 -9.87351,5.99202 -15.34219,5.39786 -4.11271,-0.44731 -8.10825,-2.2459 -11.26073,-5.39786 L 85.92706,388.46123 c -3.670504,-3.67061 -5.507057,-8.48421 -5.509557,-13.29521 -0.0026,-4.81621 1.83395,-9.63243 5.509557,-13.30772 l 39.73521,-39.73568 c 4.07937,-4.07938 9.56368,-5.89307 14.89541,-5.44316 4.26996,0.36034 8.44099,2.17404 11.70751,5.44316 l 39.73516,39.73568 c 3.6706,3.67009 5.50721,8.48162 5.50981,13.29261 0.003,4.81829 -1.834,9.6345 -5.50981,13.31032 z m 22.00282,-27.21269 0.0354,-0.0156 -0.19528,-0.52853 c -0.14736,-0.38586 -0.26921,-0.77224 -0.4296,-1.15342 l -24.09822,-64.87171 -14.50383,20.77807 -35.83126,-68.2278 c 0,0 -56.495234,84.03031 -70.826697,105.45617 l 0.03051,0.003 c -10.528865,15.73117 -8.870156,37.20025 5.021844,51.09222 l 37.136778,37.13412 c 15.80736,15.8072 41.43704,15.8072 57.24165,0 l 37.13724,-37.13412 c 11.50651,-11.50912 14.53194,-28.19271 9.28145,-42.53198 z"
     id="path2"
     inkscape:connector-curvature="0"
     style="clip-rule:evenodd;fill:#f12c4c;fill-rule:evenodd;stroke-width:5.20727491"
     inkscape:export-filename="C:\Users\suitedoalex\sites\blaze-logo-4.png"
     inkscape:export-xdpi="66.520226"
     inkscape:export-ydpi="66.520226" />
  <path
     d="m 138.96425,336.69988 c -6.45494,0 -11.68721,5.23226 -11.68721,11.68721 0,6.45441 5.23227,11.68668 11.68721,11.68668 6.45442,0 11.68721,-5.23227 11.68721,-11.68668 0,-6.45494 -5.23279,-11.68721 -11.68721,-11.68721 z"
     id="path4"
     inkscape:connector-curvature="0"
     style="clip-rule:evenodd;fill:#f12c4c;fill-rule:evenodd;stroke-width:5.20727491"
     inkscape:export-filename="C:\Users\suitedoalex\sites\blaze-logo-4.png"
     inkscape:export-xdpi="66.520226"
     inkscape:export-ydpi="66.520226" />
  <path
     d="m 138.96425,390.24473 c -6.45494,0 -11.68721,5.23279 -11.68721,11.68719 0,6.45442 5.23227,11.68722 11.68721,11.68722 6.45442,0 11.68721,-5.2328 11.68721,-11.68722 0,-6.45441 -5.23279,-11.68719 -11.68721,-11.68719 z"
     id="path6"
     inkscape:connector-curvature="0"
     style="clip-rule:evenodd;fill:#f12c4c;fill-rule:evenodd;stroke-width:5.20727491"
     inkscape:export-filename="C:\Users\suitedoalex\sites\blaze-logo-4.png"
     inkscape:export-xdpi="66.520226"
     inkscape:export-ydpi="66.520226" />
  <path
     d="m 165.73693,363.47151 c -6.45441,0 -11.6872,5.23279 -11.6872,11.68721 0,6.45443 5.23279,11.68722 11.6872,11.68722 6.45442,0 11.68721,-5.23279 11.68721,-11.68722 0,-6.45442 -5.23279,-11.68721 -11.68721,-11.68721 z"
     id="path8"
     inkscape:connector-curvature="0"
     style="clip-rule:evenodd;fill:#f12c4c;fill-rule:evenodd;stroke-width:5.20727491"
     inkscape:export-filename="C:\Users\suitedoalex\sites\blaze-logo-4.png"
     inkscape:export-xdpi="66.520226"
     inkscape:export-ydpi="66.520226" />
  <path
     d="m 100.50238,375.15872 c 0,6.45443 5.23263,11.68722 11.68965,11.68722 6.45447,0 11.68726,-5.23279 11.68726,-11.68722 0,-6.45442 -5.23279,-11.68721 -11.68726,-11.68721 -6.45702,0 -11.68965,5.23279 -11.68965,11.68721 z"
     id="path10"
     inkscape:connector-curvature="0"
     style="clip-rule:evenodd;fill:#f12c4c;fill-rule:evenodd;stroke-width:5.20727491"
     inkscape:export-filename="C:\Users\suitedoalex\sites\blaze-logo-4.png"
     inkscape:export-xdpi="66.520226"
     inkscape:export-ydpi="66.520226" />
  <path
     d="m 301.21877,353.59487 c -2.62915,0 -5.19425,0.4697 -7.69895,1.34609 -2.5021,0.87639 -4.69436,2.25319 -6.69604,4.13041 -2.00428,1.87982 -3.56854,4.25694 -4.69383,7.10481 -1.18883,2.87806 -1.75277,6.22582 -1.75277,10.10732 0,3.97523 0.56394,7.35319 1.81369,10.17033 1.1909,2.81453 2.75569,5.13125 4.69384,6.94755 1.94075,1.81368 4.13301,3.19048 6.63511,4.06636 2.5047,0.87638 5.0698,1.31588 7.69895,1.31588 2.87807,0 5.57075,-0.53063 8.13637,-1.56479 2.50158,-1.06438 4.75737,-2.56511 6.69552,-4.56938 1.87982,-1.97149 3.442,-4.34861 4.50637,-7.10222 1.1279,-2.7536 1.69132,-5.91598 1.69132,-9.42151 0,-3.44201 -0.56342,-6.54086 -1.69132,-9.3554 -1.06437,-2.81714 -2.62655,-5.19426 -4.50637,-7.13501 -1.93815,-1.91054 -4.19394,-3.41128 -6.69552,-4.44545 -2.56562,-1.06437 -5.2583,-1.59499 -8.13637,-1.59499 z m -20.52916,-10.41975 c 5.88266,-6.51014 14.01903,-9.76417 24.47159,-9.76417 5.75821,0 11.07744,1.09457 15.89885,3.22331 4.87922,2.15893 9.07316,5.13125 12.5787,8.9487 3.56594,3.81797 6.31955,8.32695 8.2629,13.58214 2.00168,5.22498 3.00252,10.92278 3.00252,17.11839 0,6.16489 -1.00084,11.89029 -3.00252,17.11788 -1.94335,5.25778 -4.69696,9.76416 -8.13584,13.58213 -3.50554,3.78465 -7.69948,6.78977 -12.5813,8.91798 -4.94587,2.15946 -10.2651,3.22122 -16.02331,3.22122 -5.57074,0 -10.70147,-1.00084 -15.20784,-3.03324 -4.50638,-2.06468 -8.19938,-5.00887 -11.07744,-8.85705 v 9.91882 H 258.34624 V 311.3295 h 22.34337 z"
     id="path12"
     style="clip-rule:evenodd;fill:#000000;fill-opacity:1;fill-rule:evenodd;stroke-width:5.20727491"
     inkscape:connector-curvature="0"
     inkscape:export-filename="C:\Users\suitedoalex\sites\blaze-logo-4.png"
     inkscape:export-xdpi="66.520226"
     inkscape:export-ydpi="66.520226" />
  <path
     d="m 357.28655,417.15228 h 22.34598 V 311.33055 h -22.34598 z"
     id="path14"
     style="clip-rule:evenodd;fill:#000000;fill-opacity:1;fill-rule:evenodd;stroke-width:5.20727491"
     inkscape:connector-curvature="0"
     inkscape:export-filename="C:\Users\suitedoalex\sites\blaze-logo-4.png"
     inkscape:export-xdpi="66.520226"
     inkscape:export-ydpi="66.520226" />
  <path
     d="m 429.03655,402.7578 c 4.88234,0 9.01275,-1.50126 12.32978,-4.47565 3.38109,-2.97231 5.07033,-6.88401 5.07033,-11.73564 v -1.00084 h -17.52717 c -7.63543,0 -11.4534,2.75361 -11.4534,8.26343 0,2.87754 1.12789,5.09792 3.25663,6.63198 2.12873,1.53406 4.94326,2.31672 8.32383,2.31672 z m 4.50377,-69.3458 c 5.19738,0 9.95214,0.74932 14.20961,2.25058 4.31839,1.47314 8.01139,3.69352 11.08004,6.60439 3.12697,2.94159 5.50461,6.57158 7.19646,10.92017 1.75224,4.3512 2.5651,9.45173 2.5651,15.30419 v 48.66146 h -20.34118 v -7.94839 c -2.87806,3.09677 -6.3836,5.50722 -10.64054,7.29019 -4.25487,1.75277 -9.07368,2.62915 -14.51945,2.62915 -4.37932,0 -8.38736,-0.62487 -11.89029,-1.87722 -3.50554,-1.28255 -6.51066,-3.0046 -8.95183,-5.13073 -2.44065,-2.16206 -4.25695,-4.72716 -5.50669,-7.69947 -1.31328,-2.9744 -1.94075,-6.22843 -1.94075,-9.76417 0,-7.50837 2.81713,-13.36134 8.38735,-17.55476 5.57075,-4.19394 13.14265,-6.29195 22.71935,-6.29195 h 20.52916 v -3.62999 c 0,-4.53658 -1.25496,-8.04212 -3.81798,-10.57442 -2.50418,-2.5349 -6.38568,-3.82057 -11.58046,-3.82057 -4.31787,0 -8.13584,1.00344 -11.51432,2.97439 -3.32016,2.00168 -6.75905,4.75528 -10.14013,8.29102 l -11.4534,-13.73679 C 407.19151,339.04366 419.0844,333.412 433.54032,333.412 Z"
     id="path16"
     style="clip-rule:evenodd;fill:#000000;fill-opacity:1;fill-rule:evenodd;stroke-width:5.20727491"
     inkscape:connector-curvature="0"
     inkscape:export-filename="C:\Users\suitedoalex\sites\blaze-logo-4.png"
     inkscape:export-xdpi="66.520226"
     inkscape:export-ydpi="66.520226" />
  <path
     d="m 599.39203,351.46771 c -4.81673,0 -9.01379,1.43772 -12.58078,4.38192 -3.50449,2.90827 -5.94462,6.97775 -7.2605,12.1392 h 37.55122 c -0.18746,-5.2859 -1.99959,-9.3554 -5.4416,-12.23605 -3.44201,-2.87806 -7.5141,-4.28507 -12.26834,-4.28507 z m 0.87482,-18.05518 c 5.69676,0 10.95611,1.00084 15.71035,2.97179 4.75424,2.00168 8.76384,4.69436 12.14337,8.13585 3.37952,3.4118 5.9415,7.44796 7.75884,12.08087 1.81733,4.63083 2.75464,9.5741 2.75464,14.86261 0,2.34692 -0.18746,4.6001 -0.49989,6.78976 -0.31244,2.22247 -0.69257,4.03877 -1.00501,5.4791 h -57.5784 c 1.44033,5.2859 4.19342,9.32467 8.2603,12.07827 4.07209,2.75361 9.13877,4.13041 15.08548,4.13041 4.37931,0 8.4514,-0.75193 12.14336,-2.22298 3.69196,-1.50074 7.25894,-3.50242 10.70095,-6.03784 l 9.07628,15.20785 c -4.63447,3.8815 -9.63866,6.88402 -15.02299,9.01275 -5.4416,2.15894 -11.26333,3.2233 -17.59017,3.2233 -6.50389,0 -12.51308,-1.09509 -18.02238,-3.28683 -5.50461,-2.22038 -10.2625,-5.2583 -14.20441,-9.10648 -4.00595,-3.8789 -7.13813,-8.38528 -9.38871,-13.57953 -2.25267,-5.16406 -3.38057,-10.79833 -3.38057,-16.86689 0,-6.07324 1.1279,-11.70491 3.31756,-16.89917 2.19174,-5.16405 5.25778,-9.70063 9.07316,-13.55193 3.8815,-3.87838 8.45088,-6.8835 13.70815,-9.10596 5.19686,-2.18966 10.88841,-3.31495 16.96009,-3.31495 z"
     id="path18"
     style="clip-rule:evenodd;fill:#000000;fill-opacity:1;fill-rule:evenodd;stroke-width:5.20727491"
     inkscape:connector-curvature="0"
     inkscape:export-filename="C:\Users\suitedoalex\sites\blaze-logo-4.png"
     inkscape:export-xdpi="66.520226"
     inkscape:export-ydpi="66.520226" />
  <path
     d="m 547.28439,335.30432 h -64.98211 v 18.87064 h 35.41468 l -35.41468,47.62262 v 15.43384 h 64.91858 v -18.87064 h -37.83033 l 37.89386,-49.57326 z"
     id="path20"
     style="clip-rule:evenodd;fill:#000000;fill-opacity:1;fill-rule:evenodd;stroke-width:5.20727491"
     inkscape:connector-curvature="0"
     inkscape:export-filename="C:\Users\suitedoalex\sites\blaze-logo-4.png"
     inkscape:export-xdpi="66.520226"
     inkscape:export-ydpi="66.520226" />
</svg>
